<?xml version="1.0" standalone="no"?>
<!DOCTYPE svg PUBLIC "-//W3C//DTD SVG 20010904//EN"
 "http://www.w3.org/TR/2001/REC-SVG-20010904/DTD/svg10.dtd">
<svg version="1.0" xmlns="http://www.w3.org/2000/svg"
 width="512.000000pt" height="512.000000pt" viewBox="0 0 512.000000 512.000000"
 preserveAspectRatio="xMidYMid meet">
<metadata>
Created by potrace 1.14, written by Peter Selinger 2001-2017
</metadata>
<g transform="translate(0.000000,512.000000) scale(0.100000,-0.100000)"
fill="#000000" stroke="none">
<path d="M2379 5116 c-2 -2 -40 -6 -83 -10 -44 -4 -82 -8 -85 -10 -3 -2 -31
-7 -61 -11 -30 -3 -75 -11 -100 -17 -25 -5 -56 -12 -70 -14 -52 -10 -236 -66
-326 -100 -173 -64 -384 -173 -520 -268 l-65 -46 -329 0 c-185 0 -340 -4 -354
-10 -59 -22 -59 -26 -61 -443 l-2 -382 -60 -120 c-132 -262 -219 -563 -251
-865 -14 -140 -7 -504 12 -615 3 -16 8 -43 10 -60 39 -253 136 -545 257 -775
84 -158 236 -379 344 -499 403 -448 912 -732 1497 -836 124 -22 221 -29 423
-30 218 0 314 8 485 41 41 9 86 17 100 20 82 15 345 101 425 138 17 8 69 32
116 54 82 38 287 159 359 211 146 107 280 227 410 367 278 298 495 700 593
1099 24 98 31 129 42 210 4 22 8 51 11 65 23 123 26 542 5 685 -24 166 -79
384 -134 535 -190 518 -522 943 -979 1254 -54 36 -101 66 -105 66 -3 0 -14 6
-22 14 -28 25 -293 153 -392 190 -116 43 -275 89 -384 111 -81 17 -94 19 -175
30 -25 4 -56 9 -70 11 -29 6 -456 15 -461 10z"/>
</g>
</svg>
